# xmcd
#
# Track frame offsets: 
#        150
#        40907
#        76942
#        106030
#        134055
#        179215
#        213815
#        241517
#        268367
#
# Disc length: 4045 seconds
#
# Revision: 3
# Processed by: cddbd v1.5.2PL0 Copyright (c) Steve Scherf et al.
# Submitted via: ExactAudioCopy v0.95b4
#
DISCID=7b0fcb09
DTITLE=Peter Bernstein Trio - Earth Tones
DYEAR=1900
DGENRE=Jazz
TTITLE0=Metamorphosis
TTITLE1=Sublime Indifference
TTITLE2=Dragonfly
TTITLE3=Who Can I Turn To
TTITLE4=The Acrobat
TTITLE5=How Deep Is The Ocean
TTITLE6=The Breakthrough
TTITLE7=The Pivot
TTITLE8=Carrot Cake
EXTD=Feat. Larry Goldings and Bill Stewart
EXTT0=
EXTT1=
EXTT2=
EXTT3=
EXTT4=
EXTT5=
EXTT6=
EXTT7=
EXTT8=
PLAYORDER=
